<svg width="30" height="23" viewBox="0 0 30 23" fill="none" xmlns="http://www.w3.org/2000/svg">
<g clip-path="url(#clip0_467_1404)">
<path d="M0 0.106934H30V22.6069H0V0.106934Z" fill="#012169"/>
<path d="M3.51562 0.106934L14.9531 8.5913L26.3438 0.106934H30V3.01318L18.75 11.4038L30 19.7475V22.6069H26.25L15 14.2163L3.79688 22.6069H0V19.7944L11.2031 11.4507L0 3.10693V0.106934H3.51562Z" fill="white"/>
<path d="M19.875 13.2788L30 20.7319V22.6069L17.2969 13.2788H19.875ZM11.25 14.2163L11.5312 15.8569L2.53125 22.6069H0L11.25 14.2163ZM30 0.106934V0.247558L18.3281 9.06005L18.4219 6.99755L27.6562 0.106934H30ZM0 0.106934L11.2031 8.35693H8.39062L0 2.07568V0.106934Z" fill="#C8102E"/>
<path d="M11.2969 0.106934V22.6069H18.7969V0.106934H11.2969ZM0 7.60693V15.1069H30V7.60693H0Z" fill="white"/>
<path d="M0 9.1538V13.6538H30V9.1538H0ZM12.7969 0.106934V22.6069H17.2969V0.106934H12.7969Z" fill="#C8102E"/>
</g>
<defs>
<clipPath id="clip0_467_1404">
<rect y="0.106934" width="30" height="22.5" rx="4" fill="white"/>
</clipPath>
</defs>
</svg>
